<?xml version="1.0" encoding="UTF-8"?>
<svg width="91px" height="38px" viewBox="0 0 91 38" version="1.1" xmlns="http://www.w3.org/2000/svg" xmlns:xlink="http://www.w3.org/1999/xlink">
    <!-- Generator: Sketch 53.2 (72643) - https://sketchapp.com -->
    <title>logo_aew</title>
    <desc>Created with Sketch.</desc>
    <g id="Layouts" stroke="none" stroke-width="1" fill="none" fill-rule="evenodd">
        <g id="1.0_mobile_home" transform="translate(-21.000000, -18.000000)">
            <g id="header" transform="translate(1.000000, 0.000000)">
                <g id="logo_aew" transform="translate(20.000000, 18.000000)">
                    <path d="M52.1376886,31.0046106 L33.5805226,31.0046106 L30.4014278,23.9749889 L47.4650593,23.9749889 C49.1559537,23.9749889 50.526805,22.6115076 50.526805,20.9297038 C50.526805,19.2479 49.1559537,17.8844186 47.4650593,17.8844186 L27.6463901,17.8844186 L20.3734106,1.81178551 C19.8800108,0.72153098 18.7918642,0.0212214994 17.5917026,0.0159161245 C17.5890356,0.0159161245 17.5863685,0.0159161245 17.5837015,0.0159161245 C16.3862069,0.0159161245 15.2980603,0.71092023 14.7993265,1.79586939 L0.317376078,33.3071433 C-0.384051724,34.8350913 0.290705819,36.6415714 1.82957974,37.3418809 C2.24296875,37.5302217 2.67502694,37.6177604 3.09908405,37.6177604 C4.2592403,37.6177604 5.37139009,36.9572412 5.88345905,35.8378071 L11.3348599,23.9749889 L23.6858567,23.9749889 L28.8092134,35.2966589 C29.3026131,36.3895661 30.3960937,37.0925283 31.5989224,37.0925283 L52.1350216,37.0925283 C53.8259159,37.0925283 55.1967672,35.7290469 55.1967672,34.0472431 C55.1967672,32.3654393 53.8259159,31.0046106 52.1376886,31.0046106 Z M14.1352371,17.8870713 L17.5596983,10.4330196 L20.930819,17.8870713 L14.1352371,17.8870713 Z" id="Shape" fill="#002D5D" fill-rule="nonzero"></path>
                    <path d="M61.8323276,37.4241142 C60.530819,37.4241142 59.3733297,36.6070865 58.9439386,35.3841976 L50.4441272,11.1678141 L29.7773437,11.1678141 C28.0864494,11.1678141 26.7155981,9.80433272 26.7155981,8.1225289 C26.7155981,6.44072507 28.0864494,5.07724373 29.7773437,5.07724373 L52.6177532,5.07724373 C53.9192619,5.07724373 55.0794181,5.89692415 55.5061422,7.11716036 L61.770986,24.9697467 L67.7477909,7.22061517 C68.163847,5.98711552 69.3213362,5.15151898 70.6281789,5.14356092 C71.9323545,5.13825554 73.1058459,5.95263058 73.5379041,7.18082486 L79.6240571,24.4365566 L84.7634159,7.25510011 C85.2461476,5.64226615 86.9503772,4.7244363 88.5692619,5.20457273 C90.1881466,5.68470915 91.1109375,7.37977642 90.6308728,8.98995768 L82.7978179,35.1799406 C82.4191002,36.4452725 81.264278,37.3233121 79.9387662,37.3551443 C78.6079203,37.3922819 77.4157597,36.5646435 76.9757004,35.3205331 L70.7161907,17.5740542 L64.7313847,35.3444073 C64.3153287,36.5779069 63.1578394,37.4135034 61.8483297,37.4214615 C61.8456627,37.4241142 61.8376616,37.4241142 61.8323276,37.4241142 Z" id="Path" fill="#005CB9"></path>
                </g>
            </g>
        </g>
    </g>
</svg>