<?xml version="1.0" encoding="UTF-8"?>
<svg width="114px" height="69px" viewBox="0 0 114 69" version="1.1" xmlns="http://www.w3.org/2000/svg" xmlns:xlink="http://www.w3.org/1999/xlink">
    <!-- Generator: Sketch 52.2 (67145) - http://www.bohemiancoding.com/sketch -->
    <title>logo_aew_mit_claim_pant_c</title>
    <desc>Created with Sketch.</desc>
    <g id="Symbols" stroke="none" stroke-width="1" fill="none" fill-rule="evenodd">
        <g id="organism/header/default/desktop" transform="translate(-300.000000, -37.000000)">
            <g id="organism/header/home/desktop">
                <g id="logo_aew_mit_claim_pant_c" transform="translate(300.000000, 37.000000)">
                    <g id="claim_x5F_cmyk" transform="translate(39.345366, 54.468515)" fill="#005CB9">
                        <g id="Group">
                            <polygon id="Path" points="0.170393319 10.8039538 0.170393319 0.142360892 1.76279634 0.142360892 1.76279634 10.8039538"></polygon>
                            <path d="M6.87459591,4.87740795 C6.13415948,4.87740795 5.62297953,5.07547527 5.23882004,5.28901661 L5.23882004,10.8039538 L3.64641703,10.8039538 L3.64641703,0.142360892 L5.23882004,0.142360892 L5.23882004,4.05109581 C5.79337284,3.7230468 6.41918103,3.52497947 7.14412716,3.52497947 C8.95029634,3.52497947 9.59159483,4.41937725 9.59159483,5.78418493 L9.59159483,10.800859 L7.99919181,10.800859 L7.99919181,5.92654582 C7.99609375,5.20236215 7.62742457,4.87740795 6.87459591,4.87740795 Z" id="Path"></path>
                            <path d="M15.298222,4.97644161 C15.1278287,4.92073517 14.8428071,4.88978715 14.5144127,4.88978715 C13.6748384,4.88978715 13.0490302,5.08785448 12.6927532,5.31686983 L12.6927532,10.8039538 L11.1003502,10.8039538 L11.1003502,3.69519358 L12.0390625,3.69519358 L12.2962015,4.26463715 C12.8228718,3.83755447 13.6190733,3.52497947 14.5453933,3.52497947 C14.8459052,3.52497947 15.0999461,3.5683067 15.298222,3.61163393 L15.298222,4.97644161 Z" id="Path"></path>
                            <path d="M19.2668373,3.52497947 C21.77007,3.52497947 22.1697198,5.17450894 22.1697198,7.1366134 C22.1697198,7.37800796 22.1542295,7.60702331 22.1418373,7.83294385 L17.7147091,7.83294385 C17.7425916,8.90065054 18.1267511,9.59698099 19.5797414,9.59698099 C20.4750808,9.59698099 21.2155172,9.44224089 21.8413254,9.16989831 L21.8413254,10.534706 C21.0296336,10.8751342 20.1064116,10.9741679 19.3380927,10.9741679 C16.9618804,10.9741679 16.1068157,9.55365376 16.1068157,7.25112108 C16.1068157,4.9609676 16.9463901,3.52497947 19.2668373,3.52497947 Z M17.7147091,6.72500474 L20.5618265,6.72500474 C20.5618265,5.75942651 20.5060614,4.90526116 19.2668373,4.90526116 C18.0988685,4.90526116 17.7735722,5.65729805 17.7147091,6.72500474 Z" id="Shape" fill-rule="nonzero"></path>
                            <polygon id="Path" points="32.5296336 6.01320028 28.0901131 6.01320028 28.0901131 9.34011242 32.9850485 9.34011242 32.9850485 10.8039538 26.4977101 10.8039538 26.4977101 0.142360892 32.9850485 0.142360892 32.9850485 1.60620224 28.0901131 1.60620224 28.0901131 4.54935893 32.5296336 4.54935893"></polygon>
                            <path d="M38.8032058,10.8039538 L38.8032058,5.92964062 C38.8032058,5.20545696 38.4345366,4.87740795 37.6786099,4.87740795 C36.9381735,4.87740795 36.4269935,5.07547527 36.0428341,5.28901661 L36.0428341,10.8039538 L34.450431,10.8039538 L34.450431,3.69519358 L35.3891433,3.69519358 L35.6462823,4.26463715 C36.3712284,3.76637403 37.1829203,3.52497947 37.9512392,3.52497947 C39.7574084,3.52497947 40.3987069,4.41937725 40.3987069,5.78418493 L40.3987069,10.800859 L38.8032058,10.800859 L38.8032058,10.8039538 Z" id="Path"></path>
                            <path d="M44.8661099,3.52497947 C47.3693427,3.52497947 47.7689925,5.17450894 47.7689925,7.1366134 C47.7689925,7.37800796 47.7535022,7.60702331 47.7411099,7.83294385 L43.3139817,7.83294385 C43.3418642,8.90065054 43.7260237,9.59698099 45.179014,9.59698099 C46.0743534,9.59698099 46.8147899,9.44224089 47.4405981,9.16989831 L47.4405981,10.534706 C46.6289062,10.8751342 45.7056843,10.9741679 44.9373653,10.9741679 C42.561153,10.9741679 41.7060884,9.55365376 41.7060884,7.25112108 C41.7060884,4.9609676 42.5456627,3.52497947 44.8661099,3.52497947 Z M43.3139817,6.72500474 L46.1610991,6.72500474 C46.1610991,5.75942651 46.1053341,4.90526116 44.8661099,4.90526116 C43.6981412,4.90526116 43.3728448,5.65729805 43.3139817,6.72500474 Z" id="Shape" fill-rule="nonzero"></path>
                            <path d="M53.3609914,4.97644161 C53.1905981,4.92073517 52.9055765,4.88978715 52.5771821,4.88978715 C51.7376078,4.88978715 51.1117996,5.08785448 50.7555226,5.31686983 L50.7555226,10.8039538 L49.1631196,10.8039538 L49.1631196,3.69519358 L50.1018319,3.69519358 L50.3589709,4.26463715 C50.8856412,3.83755447 51.6818427,3.52497947 52.6081627,3.52497947 C52.9055765,3.52497947 53.1627155,3.5683067 53.3609914,3.61163393 L53.3609914,4.97644161 Z" id="Path"></path>
                            <path d="M57.0755657,8.92850376 C56.7781519,8.92850376 56.4931304,8.91302975 56.2514817,8.87279732 C56.1368534,8.987305 56.0532058,9.1420451 56.0532058,9.28440599 C56.0532058,9.52580054 56.1802263,9.65268742 56.4807381,9.69601465 L59.0552263,10.0085897 C60.4648437,10.1788038 60.9605334,10.8194278 60.9605334,11.9985473 C60.9605334,13.8306701 59.0242457,14.5300954 56.9609375,14.5300954 C55.0556304,14.5300954 53.6738955,13.9204194 53.6738955,12.4534832 C53.6738955,11.487905 54.3988416,10.9184614 55.1547683,10.6894461 L55.1547683,10.6739721 C54.7984914,10.4759048 54.6002155,10.0766753 54.6002155,9.69291985 C54.6002155,9.16680351 54.9131196,8.79852207 55.241514,8.54165351 C54.4298222,8.08671762 54.1045259,7.26350028 54.1045259,6.22364681 C54.1045259,4.60197057 54.9007274,3.52188467 57.0786638,3.52188467 C57.5898437,3.52188467 58.0173761,3.57759111 58.3891433,3.69209878 L60.8521013,3.69209878 L60.8521013,4.70100423 L59.8421336,4.98572602 C59.9846444,5.35400745 60.0558998,5.76871092 60.0558998,6.22364681 C60.0497037,7.84841786 59.2535022,8.92850376 57.0755657,8.92850376 Z M56.576778,11.0174951 C55.8518319,11.144382 55.1950431,11.472431 55.1950431,12.1532874 C55.1950431,12.9486516 55.7650862,13.2612266 57.0724677,13.2612266 C58.3240841,13.2612266 59.4207974,12.8929451 59.4207974,12.0387798 C59.4207974,11.5559907 59.1791487,11.3424493 58.5967134,11.2712689 L56.576778,11.0174951 Z M57.0755657,7.66272974 C58.271417,7.66272974 58.5409483,7.03757974 58.5409483,6.22674162 C58.5409483,5.41590349 58.271417,4.79075349 57.0755657,4.79075349 C55.8797144,4.79075349 55.6101832,5.41590349 55.6101832,6.22674162 C55.6101832,7.03757974 55.8797144,7.66272974 57.0755657,7.66272974 Z" id="Shape" fill-rule="nonzero"></path>
                            <path d="M62.7667026,0.553969557 C63.3367457,0.553969557 63.8045528,1.02437946 63.8045528,1.59072823 C63.8045528,2.16017179 63.3336476,2.62748689 62.7667026,2.62748689 C62.1966595,2.62748689 61.7288524,2.15707699 61.7288524,1.59072823 C61.7288524,1.02437946 62.1966595,0.553969557 62.7667026,0.553969557 Z M61.9705011,9.05539064 L61.9705011,3.69519358 L63.5629041,3.69519358 L63.5629041,9.03991663 C63.5629041,9.43914609 63.7054149,9.58150698 64.1608297,9.58150698 L64.1608297,10.8751342 C64.1608297,10.8751342 64.018319,10.9029874 63.8479256,10.9029874 C62.5529364,10.9029874 61.9705011,10.2778374 61.9705011,9.05539064 Z" id="Shape" fill-rule="nonzero"></path>
                            <path d="M68.4454472,3.52497947 C70.94868,3.52497947 71.3483297,5.17450894 71.3483297,7.1366134 C71.3483297,7.37800796 71.3328394,7.60702331 71.3204472,7.83294385 L66.893319,7.83294385 C66.9212015,8.90065054 67.305361,9.59698099 68.7583513,9.59698099 C69.6536907,9.59698099 70.3941272,9.44224089 71.0199353,9.16989831 L71.0199353,10.534706 C70.2082435,10.8751342 69.2850216,10.9741679 68.5167026,10.9741679 C66.1404903,10.9741679 65.2854256,9.55365376 65.2854256,7.25112108 C65.2854256,4.9609676 66.125,3.52497947 68.4454472,3.52497947 Z M66.893319,6.72500474 L69.7404364,6.72500474 C69.7404364,5.75942651 69.6846713,4.90526116 68.4454472,4.90526116 C67.2774784,4.90526116 66.9490841,5.65729805 66.893319,6.72500474 Z" id="Shape" fill-rule="nonzero"></path>
                            <path d="M73.5231681,8.90065054 C74.0932112,8.90065054 74.5610183,9.37106044 74.5610183,9.93740921 C74.5610183,10.5068528 74.0901131,10.9741679 73.5231681,10.9741679 C72.953125,10.9741679 72.4853179,10.503758 72.4853179,9.93740921 C72.4853179,9.36796564 72.9562231,8.90065054 73.5231681,8.90065054 Z" id="Path"></path>
                        </g>
                    </g>
                    <g id="logo_x5F_cmyk">
                        <path d="M60.5639817,36.1720457 L39.0076778,36.1720457 L35.3147899,27.9708204 L55.13618,27.9708204 C57.1003502,27.9708204 58.6927532,26.3800922 58.6927532,24.4179877 C58.6927532,22.4558833 57.1003502,20.8651551 55.13618,20.8651551 L32.1144935,20.8651551 L23.666083,2.11374976 C23.0929418,0.841786143 21.8289332,0.024758416 20.434806,0.018568812 C20.431708,0.018568812 20.4286099,0.018568812 20.4255119,0.018568812 C19.0344828,0.018568812 17.7704741,0.829406935 17.1911369,2.09518095 L0.368669181,38.8583339 C-0.44612069,40.6409398 0.337688578,42.7485 2.1252694,43.5655277 C2.60546875,43.7852586 3.10735453,43.8873871 3.59994612,43.8873871 C4.94760237,43.8873871 6.23949353,43.1167814 6.83432112,41.810775 L13.1667565,27.9708204 L27.5138739,27.9708204 L33.4652478,41.1794354 C34.038389,42.4544938 35.3085937,43.2746163 36.705819,43.2746163 L60.5608836,43.2746163 C62.5250539,43.2746163 64.1174569,41.6838881 64.1174569,39.7217836 C64.1174569,37.7596792 62.5250539,36.1720457 60.5639817,36.1720457 Z M16.4197198,20.8682499 L20.3976293,12.1718562 L24.3135776,20.8682499 L16.4197198,20.8682499 Z" id="Shape" fill="#002D5D" fill-rule="nonzero"></path>
                        <path d="M71.825431,43.6614666 C70.3135776,43.6614666 68.9690194,42.7082675 68.4702317,41.2815638 L58.5967134,13.0291164 L34.5898438,13.0291164 C32.6256735,13.0291164 31.0332705,11.4383882 31.0332705,9.47628371 C31.0332705,7.51417925 32.6256735,5.92345102 34.5898438,5.92345102 L61.1216325,5.92345102 C62.633486,5.92345102 63.9811422,6.87974484 64.4768319,8.30335375 L71.7541756,29.1313712 L78.6969289,8.42405103 C79.1802263,6.9849681 80.5247845,6.01010548 82.0428341,6.00082107 C83.5577856,5.99463147 84.9209321,6.94473568 85.4228179,8.377629 L92.4925916,28.509316 L98.4625539,8.46428346 C99.0233028,6.58264385 101.002963,5.51184235 102.883486,6.07200152 C104.764009,6.63216068 105.835937,8.60973915 105.278287,10.488284 L96.1792834,41.0432641 C95.7393588,42.5194846 94.3978987,43.5438641 92.8581627,43.5810017 C91.3122306,43.6243289 89.9273976,42.6587507 89.4162177,41.2072886 L82.14507,20.5030632 L75.1930226,41.2351418 C74.7097252,42.6742247 73.365167,43.6490873 71.8440194,43.6583718 C71.8409213,43.6614666 71.8316272,43.6614666 71.825431,43.6614666 Z" id="Path" fill="#005CB9"></path>
                    </g>
                </g>
            </g>
        </g>
    </g>
</svg>