<?xml version="1.0" encoding="UTF-8"?>
<svg width="40px" height="40px" viewBox="0 0 40 40" version="1.1" xmlns="http://www.w3.org/2000/svg" xmlns:xlink="http://www.w3.org/1999/xlink">
    <!-- Generator: Sketch 55.2 (78181) - https://sketchapp.com -->
    <title>atom/icon/faq/40x40</title>
    <desc>Created with Sketch.</desc>
    <g id="atom/icon/faq/40x40" stroke="none" stroke-width="1" fill="none" fill-rule="evenodd">
        <g id="icon" transform="translate(1.499875, 3.625125)">
            <path d="M22.500125,15.7750281 C22.500125,14.2648923 23.952603,13.0811427 25.5888283,13.4393274 C26.4925646,13.637319 27.2263035,14.341689 27.4331754,15.2098521 C27.725046,16.4403998 27.0313065,17.5623521 25.9606977,17.9907339 C25.3788315,18.2241239 25.0000872,18.7695007 25.0000872,19.374875" id="Stroke-1" stroke="#FFFFFF" stroke-width="2" stroke-linecap="round" stroke-linejoin="round"></path>
            <path d="M26.500125,22.874875 C26.500125,23.702875 25.828125,24.374875 25.000125,24.374875 C24.172125,24.374875 23.500125,23.702875 23.500125,22.874875 C23.500125,22.045875 24.172125,21.374875 25.000125,21.374875 C25.828125,21.374875 26.500125,22.045875 26.500125,22.874875" id="Fill-3" fill="#FFFFFF"></path>
            <path d="M31.4715536,9.374875 L19.5286964,9.374875 C16.7629821,9.374875 14.500125,11.6657841 14.500125,14.4657841 L14.500125,22.2871279 C14.500125,25.0864915 16.7629821,27.378037 19.5286964,27.378037 L27.510925,27.378037 C28.399725,29.5486734 30.3382393,31.3521279 32.6444679,31.8325825 C31.5859536,30.0984915 31.0931536,28.9498552 30.8876107,27.378037 L31.4715536,27.378037 C34.2372679,27.378037 36.500125,25.0864915 36.500125,22.2871279 L36.500125,14.4657841 C36.500125,11.6657841 34.2372679,9.374875 31.4715536,9.374875 Z" id="Stroke-5" stroke="#FFFFFF" stroke-width="2" stroke-linecap="round" stroke-linejoin="round"></path>
            <path d="M9.489325,18.9203295 C8.600525,21.0909659 6.66201071,22.8944205 4.35578214,23.374875 C5.41429643,21.6407841 5.90709643,20.4921477 6.11263929,18.9203295 L5.52869643,18.9203295 C2.76298214,18.9203295 0.500125,16.6287841 0.500125,13.8294205 L0.500125,5.46578409 C0.500125,2.66578409 2.76298214,0.374875 5.52869643,0.374875 L17.4715536,0.374875 C20.2378964,0.374875 22.500125,2.66578409 22.500125,5.46578409" id="Stroke-7" stroke="#FFFFFF" stroke-width="2" stroke-linecap="round" stroke-linejoin="round"></path>
        </g>
    </g>
</svg>