<svg id="Ebene_1" data-name="Ebene 1" xmlns="http://www.w3.org/2000/svg" viewBox="0 0 30.54 20.85"><title>atom-icon-contact-40x40</title><path d="M5.84,29.86l.09.09a2.52,2.52,0,0,0,1.66.62H33.11a2.49,2.49,0,0,0,1.66-.63l.09-.08a2.48,2.48,0,0,0,.76-1.8V12.23a2.53,2.53,0,0,0-.77-1.81l-.05,0,0,0h0a2.48,2.48,0,0,0-1.66-.62H7.59a2.52,2.52,0,0,0-1.66.62l0,0h0l-.05,0a2.49,2.49,0,0,0-.77,1.8V28.06A2.5,2.5,0,0,0,5.84,29.86Zm12.91-7.58a2.5,2.5,0,0,0,3.2,0l12-9.94V28l-8.22-6.82a.85.85,0,0,0-1.18.11.83.83,0,0,0,.11,1.18l7.81,6.47H8.24L16,22.46a.84.84,0,0,0-1.07-1.29L6.75,28V12.34ZM8.24,11.4H32.47L20.89,21a.86.86,0,0,1-1.07,0Z" transform="translate(-5.08 -9.73)" style="fill:#fffefe"/></svg>